<svg width="356" height="80" viewBox="0 0 356 80" fill="none" xmlns="http://www.w3.org/2000/svg">
<path d="M233.587 46.3583C231.637 49.0798 228.492 50.8203 224.906 50.8203C218.993 50.8203 214.212 46.0102 214.212 40.0608C214.212 34.1114 218.993 29.3013 224.906 29.3013C228.492 29.3013 231.668 31.0735 233.618 33.795" stroke="white" stroke-width="5" stroke-miterlimit="10"/>
<path d="M266.392 28.795V50.6621H278.659" stroke="white" stroke-width="5" stroke-miterlimit="10"/>
<path d="M295.077 29.4279H282.716V50.6621H295.077" stroke="white" stroke-width="5" stroke-miterlimit="10"/>
<path d="M282.716 38.2254H294.071" stroke="white" stroke-width="5" stroke-miterlimit="10"/>
<path d="M308.885 50.8519C314.809 50.8519 319.611 46.0206 319.611 40.0608C319.611 34.101 314.809 29.2697 308.885 29.2697C302.962 29.2697 298.16 34.101 298.16 40.0608C298.16 46.0206 302.962 50.8519 308.885 50.8519Z" stroke="white" stroke-width="5" stroke-miterlimit="10"/>
<path d="M324.737 44.4912C324.737 48.0038 327.568 50.8519 331.059 50.8519C334.551 50.8519 337.382 48.0038 337.382 44.4912C337.382 41.5165 334.425 39.9659 331.72 38.8266C329.015 37.6874 326.467 36.3266 326.467 33.3519C326.467 30.3773 329.392 29.0798 331.059 29.0798C333.418 29.0798 335.148 30.4722 335.998 33.0038" stroke="white" stroke-width="5" stroke-miterlimit="10"/>
<path d="M249.345 28.5102L262.429 51.0102L249.345 58.9848L257.963 31.6431L249.345 19.4279V28.5102Z" stroke="white" stroke-width="1.5" stroke-miterlimit="10" stroke-linecap="round" stroke-linejoin="round"/>
<path d="M249.345 51.0102H262.429L257.963 31.6431" stroke="white" stroke-width="1.5" stroke-miterlimit="10" stroke-linecap="round" stroke-linejoin="round"/>
<path d="M249.345 28.5102L236.229 51.0102L249.345 58.9848L240.727 31.6431L249.345 19.4279V28.5102Z" stroke="white" stroke-width="1.5" stroke-miterlimit="10" stroke-linecap="round" stroke-linejoin="round"/>
<path d="M249.345 51.0102H236.229L240.727 31.6431" stroke="white" stroke-width="1.5" stroke-miterlimit="10" stroke-linecap="round" stroke-linejoin="round"/>
<path d="M262.24 50.2823L249.25 28.0355L236.543 50.0924V51.4532H262.24V50.2823ZM238.494 49.8709L249.282 31.1684L260.196 49.8709H238.494Z" fill="white"/>
<path d="M5.408 43.784V53H2.72V30.6H10.72C11.872 30.6 12.8747 30.7707 13.728 31.112C14.5813 31.432 15.2853 31.8693 15.84 32.424C16.416 32.9787 16.8427 33.6293 17.12 34.376C17.4187 35.1013 17.568 35.8693 17.568 36.68V37.64C17.568 38.4507 17.4187 39.2293 17.12 39.976C16.8427 40.7227 16.416 41.384 15.84 41.96C15.264 42.5147 14.5493 42.9627 13.696 43.304C12.8427 43.624 11.8507 43.784 10.72 43.784H5.408ZM5.408 41.288H10.4C13.3867 41.288 14.88 40.008 14.88 37.448V36.872C14.88 35.7413 14.5067 34.8347 13.76 34.152C13.0347 33.448 11.9147 33.096 10.4 33.096H5.408V41.288ZM37.3538 45.256C37.3538 46.5787 37.1298 47.752 36.6818 48.776C36.2551 49.7787 35.6791 50.632 34.9538 51.336C34.2284 52.0187 33.3751 52.5413 32.3938 52.904C31.4338 53.2667 30.4311 53.448 29.3858 53.448C28.3191 53.448 27.3058 53.2667 26.3458 52.904C25.3858 52.5413 24.5431 52.0187 23.8177 51.336C23.0924 50.632 22.5058 49.7787 22.0578 48.776C21.6311 47.752 21.4178 46.5787 21.4178 45.256V44.872C21.4178 43.5707 21.6311 42.4187 22.0578 41.416C22.5058 40.392 23.0924 39.528 23.8177 38.824C24.5644 38.12 25.4178 37.5867 26.3778 37.224C27.3378 36.8613 28.3404 36.68 29.3858 36.68C30.4311 36.68 31.4338 36.8613 32.3938 37.224C33.3538 37.5867 34.1964 38.12 34.9218 38.824C35.6684 39.528 36.2551 40.392 36.6818 41.416C37.1298 42.4187 37.3538 43.5707 37.3538 44.872V45.256ZM29.3858 51.08C30.1538 51.08 30.8578 50.952 31.4978 50.696C32.1591 50.4187 32.7351 50.024 33.2258 49.512C33.7164 49 34.1004 48.392 34.3778 47.688C34.6551 46.9627 34.7938 46.152 34.7938 45.256V44.872C34.7938 44.0187 34.6551 43.24 34.3778 42.536C34.1004 41.8107 33.7164 41.192 33.2258 40.68C32.7351 40.168 32.1591 39.7733 31.4978 39.496C30.8364 39.1973 30.1324 39.048 29.3858 39.048C28.6391 39.048 27.9351 39.1973 27.2738 39.496C26.6124 39.7733 26.0364 40.168 25.5458 40.68C25.0551 41.192 24.6711 41.8107 24.3938 42.536C24.1164 43.24 23.9778 44.0187 23.9778 44.872V45.256C23.9778 46.152 24.1164 46.9627 24.3938 47.688C24.6711 48.392 25.0551 49 25.5458 49.512C26.0364 50.024 26.6018 50.4187 27.2418 50.696C27.9031 50.952 28.6178 51.08 29.3858 51.08ZM55.6995 53H51.0915L49.1715 38.28H48.7875L46.8675 53H42.2595L39.7635 37.128H42.3235L44.4355 51.848H44.8195L46.6755 37.128H51.2835L53.1395 51.848H53.5235L55.6355 37.128H58.1955L55.6995 53ZM63.3893 45.832C63.4533 47.4107 63.9439 48.68 64.8613 49.64C65.7786 50.6 67.0586 51.08 68.7013 51.08C69.4479 51.08 70.0986 50.9947 70.6533 50.824C71.2079 50.6533 71.6773 50.4187 72.0613 50.12C72.4666 49.8213 72.7866 49.48 73.0213 49.096C73.2773 48.6907 73.4799 48.264 73.6293 47.816L75.9973 48.456C75.5493 49.928 74.7173 51.1333 73.5013 52.072C72.3066 52.9893 70.6853 53.448 68.6373 53.448C67.5066 53.448 66.4613 53.256 65.5013 52.872C64.5626 52.4667 63.7519 51.9013 63.0693 51.176C62.3866 50.4507 61.8533 49.5867 61.4693 48.584C61.0853 47.5813 60.8932 46.472 60.8932 45.256V44.488C60.8932 43.3787 61.0853 42.344 61.4693 41.384C61.8746 40.424 62.4293 39.6027 63.1333 38.92C63.8373 38.216 64.6586 37.672 65.5973 37.288C66.5573 36.8827 67.5919 36.68 68.7013 36.68C70.0026 36.68 71.1226 36.9253 72.0613 37.416C73.0213 37.8853 73.7999 38.472 74.3973 39.176C75.0159 39.88 75.4639 40.648 75.7413 41.48C76.0399 42.312 76.1893 43.08 76.1893 43.784V45.832H63.3893ZM68.7013 39.048C67.9973 39.048 67.3359 39.1653 66.7173 39.4C66.1199 39.6133 65.5866 39.9227 65.1173 40.328C64.6693 40.7333 64.2959 41.2133 63.9973 41.768C63.7199 42.3013 63.5386 42.888 63.4533 43.528H73.6933C73.6506 42.8453 73.4799 42.2267 73.1813 41.672C72.9039 41.1173 72.5306 40.648 72.0613 40.264C71.6133 39.88 71.0906 39.5813 70.4933 39.368C69.9173 39.1547 69.3199 39.048 68.7013 39.048ZM80.263 37.128H86.023V39.24H86.407C86.8123 38.3653 87.3883 37.7253 88.135 37.32C88.8817 36.8933 89.735 36.68 90.695 36.68C92.295 36.68 93.5857 37.2027 94.567 38.248C95.5483 39.2933 96.071 40.8187 96.135 42.824L93.511 43.208C93.511 41.736 93.159 40.68 92.455 40.04C91.751 39.3787 90.887 39.048 89.863 39.048C89.2017 39.048 88.6257 39.176 88.135 39.432C87.6657 39.688 87.271 40.04 86.951 40.488C86.631 40.936 86.3963 41.4587 86.247 42.056C86.0977 42.6533 86.023 43.2933 86.023 43.976V50.696H90.055V53H79.879V50.696H83.527V39.432H80.263V37.128ZM102.577 45.832C102.641 47.4107 103.131 48.68 104.049 49.64C104.966 50.6 106.246 51.08 107.889 51.08C108.635 51.08 109.286 50.9947 109.841 50.824C110.395 50.6533 110.865 50.4187 111.249 50.12C111.654 49.8213 111.974 49.48 112.209 49.096C112.465 48.6907 112.667 48.264 112.817 47.816L115.185 48.456C114.737 49.928 113.905 51.1333 112.689 52.072C111.494 52.9893 109.873 53.448 107.825 53.448C106.694 53.448 105.649 53.256 104.689 52.872C103.75 52.4667 102.939 51.9013 102.257 51.176C101.574 50.4507 101.041 49.5867 100.657 48.584C100.273 47.5813 100.081 46.472 100.081 45.256V44.488C100.081 43.3787 100.273 42.344 100.657 41.384C101.062 40.424 101.617 39.6027 102.321 38.92C103.025 38.216 103.846 37.672 104.785 37.288C105.745 36.8827 106.779 36.68 107.889 36.68C109.19 36.68 110.31 36.9253 111.249 37.416C112.209 37.8853 112.987 38.472 113.585 39.176C114.203 39.88 114.651 40.648 114.929 41.48C115.227 42.312 115.377 43.08 115.377 43.784V45.832H102.577ZM107.889 39.048C107.185 39.048 106.523 39.1653 105.905 39.4C105.307 39.6133 104.774 39.9227 104.305 40.328C103.857 40.7333 103.483 41.2133 103.185 41.768C102.907 42.3013 102.726 42.888 102.641 43.528H112.881C112.838 42.8453 112.667 42.2267 112.369 41.672C112.091 41.1173 111.718 40.648 111.249 40.264C110.801 39.88 110.278 39.5813 109.681 39.368C109.105 39.1547 108.507 39.048 107.889 39.048ZM132.635 50.568H132.251C131.995 51.0587 131.664 51.4853 131.259 51.848C130.875 52.2107 130.448 52.5093 129.979 52.744C129.531 52.9787 129.051 53.1493 128.539 53.256C128.027 53.384 127.536 53.448 127.067 53.448C126 53.448 125.008 53.2667 124.091 52.904C123.173 52.5413 122.363 52.0187 121.659 51.336C120.976 50.6533 120.432 49.8107 120.027 48.808C119.643 47.784 119.451 46.6213 119.451 45.32V44.808C119.451 43.528 119.653 42.3867 120.059 41.384C120.464 40.36 121.008 39.5067 121.691 38.824C122.373 38.12 123.173 37.5867 124.091 37.224C125.008 36.8613 125.979 36.68 127.003 36.68C128.091 36.68 129.104 36.9253 130.043 37.416C131.003 37.8853 131.739 38.6213 132.251 39.624H132.635V30.6H135.131V53H132.635V50.568ZM127.323 51.08C128.069 51.08 128.763 50.9413 129.403 50.664C130.043 50.3867 130.597 49.992 131.067 49.48C131.557 48.968 131.941 48.36 132.219 47.656C132.496 46.9307 132.635 46.1307 132.635 45.256V44.872C132.635 44.0187 132.496 43.24 132.219 42.536C131.941 41.8107 131.557 41.192 131.067 40.68C130.597 40.168 130.032 39.7733 129.371 39.496C128.731 39.1973 128.048 39.048 127.323 39.048C126.576 39.048 125.872 39.1867 125.211 39.464C124.571 39.7413 124.005 40.136 123.515 40.648C123.045 41.16 122.672 41.768 122.395 42.472C122.139 43.176 122.011 43.9547 122.011 44.808V45.32C122.011 46.216 122.139 47.016 122.395 47.72C122.672 48.424 123.045 49.032 123.515 49.544C124.005 50.0347 124.571 50.4187 125.211 50.696C125.851 50.952 126.555 51.08 127.323 51.08ZM158.574 50.504H160.494V33.096H158.574V30.6H167.63C168.697 30.6 169.635 30.7493 170.446 31.048C171.278 31.3467 171.971 31.752 172.526 32.264C173.102 32.776 173.529 33.3947 173.806 34.12C174.105 34.824 174.254 35.592 174.254 36.424V36.808C174.254 37.4267 174.158 37.992 173.966 38.504C173.774 39.016 173.507 39.4747 173.166 39.88C172.825 40.2853 172.419 40.6373 171.95 40.936C171.502 41.2133 171.011 41.4267 170.478 41.576V41.96C171.545 42.2587 172.441 42.8347 173.166 43.688C173.891 44.52 174.254 45.544 174.254 46.76V47.144C174.254 47.976 174.105 48.7547 173.806 49.48C173.529 50.184 173.102 50.8027 172.526 51.336C171.971 51.848 171.278 52.2533 170.446 52.552C169.635 52.8507 168.697 53 167.63 53H158.574V50.504ZM163.182 50.504H167.438C168.697 50.504 169.721 50.1947 170.51 49.576C171.299 48.936 171.694 48.0613 171.694 46.952V46.76C171.694 45.608 171.321 44.7013 170.574 44.04C169.827 43.3573 168.814 43.016 167.534 43.016H163.182V50.504ZM163.182 40.52H167.534C168.814 40.52 169.827 40.1893 170.574 39.528C171.321 38.8667 171.694 37.96 171.694 36.808V36.616C171.694 35.528 171.299 34.6747 170.51 34.056C169.721 33.416 168.697 33.096 167.438 33.096H163.182V40.52ZM190.648 50.12H190.264C189.752 51.144 189.08 51.9547 188.248 52.552C187.416 53.1493 186.36 53.448 185.08 53.448C184.205 53.448 183.394 53.2987 182.648 53C181.922 52.7227 181.293 52.296 180.76 51.72C180.248 51.144 179.842 50.4293 179.544 49.576C179.266 48.7227 179.128 47.7307 179.128 46.6V37.128H181.624V46.28C181.624 47.944 181.965 49.16 182.648 49.928C183.33 50.696 184.376 51.08 185.784 51.08C187.298 51.08 188.482 50.568 189.336 49.544C190.21 48.4987 190.648 47.112 190.648 45.384V37.128H193.144V56.904C193.144 57.6293 192.909 58.2267 192.44 58.696C191.992 59.1653 191.405 59.4 190.68 59.4H181.624V57.096H189.784C190.36 57.096 190.648 56.776 190.648 56.136V50.12Z" fill="white"/>
</svg>
