<svg width="186" height="209" viewBox="0 0 186 209" fill="none" xmlns="http://www.w3.org/2000/svg">
<path d="M86.1317 17.4251C94.3647 18.948 100.976 17.9146 105.084 8.95876C106.093 6.39374 107.904 4.22931 110.245 2.79324C112.585 1.35716 115.327 0.727645 118.055 1.00001C129.603 2.19654 141.187 2.99423 152.681 4.62586C162.247 5.91304 165.471 12.0589 162.229 21.3592C160.679 25.819 159.869 30.8227 157.274 34.5754C149.96 45.1448 154.158 54.0281 159.815 63.2015C167.435 75.4751 174.749 88.0205 182.226 100.439C184.091 103.469 185.054 106.973 185 110.537C184.671 122.15 182.228 133.604 177.794 144.33C175.146 151.274 169.399 154.954 162.283 155.987C152.554 157.401 143.979 157.963 136.773 167.989C128.306 179.755 113.569 185.338 100.616 192.101C80.2767 198.029 59.7932 203.395 39.0395 207.656C30.5002 209.468 20.5196 204.392 18.3578 196.506C13.1153 177.47 5.74703 158.997 2.97266 139.29C0.396461 120.653 -2.37791 102.107 6.19742 83.9233C9.13392 77.6687 4.70214 71.3597 2.59434 65.4858C-2.0176 53.1942 -0.738508 45.8156 9.00782 36.7691C13.8613 31.9823 18.967 27.4615 24.3029 23.2265C29.1926 19.377 35.2273 17.2952 41.4355 17.3164C56.3342 17.5158 71.233 17.407 86.1317 17.4251ZM79.1597 35.4456H66.549H54.2625C51.3079 35.3187 48.3354 35.2643 45.3629 35.0649C33.2385 34.2672 26.8431 43.4225 19.9792 50.7649C14.7187 56.3849 20.0873 62.7302 22.1951 68.2233C25.672 77.288 27.3115 85.7181 20.898 94.2932C18.3938 97.629 18.4839 102.071 18.1416 106.313C15.9618 133.851 25.9963 158.997 32.8422 184.758C34.1933 189.853 36.6614 190.868 41.958 189.218C52.3909 186.062 62.9878 183.484 73.7011 181.495C85.3931 179.265 96.4365 175.748 106.129 168.696C114.686 164.78 122.343 159.414 127.243 151.346C131.224 144.783 135.944 141.592 143.763 141.339C150.357 141.139 159.869 141.085 162.319 135.592C166.48 126.291 170.408 115.251 164.859 104.772C158.121 92.0815 149.69 80.2793 142.772 67.5707C137.079 57.1282 131.44 47.6285 138.412 35.4819C140.862 31.2578 141.835 26.1453 143.565 21.1779C137.223 20.6703 131.224 20.7428 125.549 19.5463C120.631 18.531 117.334 19.5463 115.353 24.0423C111.245 33.3608 104.021 36.2071 94.3647 35.2462C89.2967 35.0234 84.2202 35.09 79.1597 35.4456Z" fill="white"/>
</svg>
