<svg width="63" height="73" viewBox="0 0 63 73" fill="none" xmlns="http://www.w3.org/2000/svg">
<path d="M41.5375 20.356C42.2688 18.6743 43.1671 17.3509 42.9981 15.6253C42.9975 15.3307 43.0193 15.0366 43.0633 14.7459C43.1122 13.9501 43.4951 13.5083 44.2407 13.5874C44.9149 13.6578 45.2592 14.0798 45.1736 14.8624C45.0643 15.7067 45.2534 16.5645 45.7033 17.2652C46.4427 18.4061 47.1577 19.5646 47.6649 20.8463C47.832 21.2859 48.2048 21.4332 48.6305 21.5321C55.8498 23.2358 59.5837 28.6525 61.6676 35.8212C61.8835 36.562 61.6676 37.1798 61.1685 37.7096C60.8304 38.0679 60.4902 38.4284 60.1805 38.8087C59.8709 39.189 59.4207 39.4221 59.2252 39.987C60.5207 40.3849 61.2215 41.4335 61.7144 42.658C62.1463 43.7264 62.4926 44.8343 62.8756 45.9269C63.1832 46.7952 62.9102 47.4085 62.1707 47.835C60.2254 48.9584 58.172 49.5673 56.0087 48.8682C54.4707 48.3714 53.2607 48.8199 52.2096 49.9322C48.5735 53.7749 44.0614 55.5687 39.1725 56.5272C38.8507 56.5887 38.4881 56.5118 38.3455 56.9822C37.6162 59.363 36.8788 61.7394 36.1047 64.2367C37.3819 64.2367 38.5308 64.2191 39.6777 64.2367C44.0472 64.3158 45.6157 68.5014 45.3427 71.966C45.3325 72.1699 45.2577 72.3639 45.1309 72.5155C45.0041 72.6671 44.833 72.7672 44.646 72.7991C44.2486 72.887 43.8437 72.929 43.4381 72.9244C36.0171 72.9244 28.5901 72.7464 21.1732 72.9882C13.0433 73.252 7.37424 69.0884 3.3857 61.9636C-0.688387 54.6696 -0.938943 46.9051 1.84773 38.9846C3.34293 34.7352 5.44923 30.8156 7.45164 26.8389C8.03855 25.6881 8.54712 24.4927 8.97332 23.2622C9.69647 21.154 9.32369 19.6328 7.73683 18.1775C6.47678 17.0613 5.05671 16.1741 3.53237 15.5505C1.65829 14.7371 1.51773 14.3239 2.49551 12.3871C6.05831 5.33054 11.7539 1.63736 18.9426 0.38432C23.0167 -0.325737 27.0643 -0.180648 30.843 1.92314C35.2777 4.37647 37.9014 8.48512 39.6695 13.3544C40.4599 15.5241 40.9977 17.784 41.5375 20.356ZM40.519 25.6606C37.5958 27.2126 34.9864 29.0108 32.7192 31.363C32.3749 31.7191 32.3362 31.9368 32.7192 32.2973C33.1673 32.7084 33.1551 33.269 32.8454 33.7856C32.5114 34.3417 32.0103 34.3483 31.4888 34.1725C31.2647 34.0955 31.0528 33.9746 30.8349 33.8757C25.4856 31.44 19.8247 32.7238 15.8667 37.3139C12.4913 41.2247 11.6215 45.9972 11.8965 51.1347C12.035 53.7089 12.6665 56.1732 13.4507 58.5958C13.7013 59.3696 13.7359 60.0753 12.9028 60.4204C12.0696 60.7655 11.6398 60.2006 11.3831 59.4377C9.7861 54.7201 9.09758 49.8795 9.97962 44.9003C11.8496 34.4011 20.8126 28.3843 29.3051 30.7607C29.4993 30.8258 29.7068 30.8298 29.903 30.7721C30.0993 30.7145 30.2763 30.5977 30.4132 30.4353C33.0064 27.6589 36.0375 25.5309 39.1725 23.5546C39.3269 23.4852 39.453 23.3582 39.5278 23.1968C39.6026 23.0353 39.6211 22.8502 39.5799 22.6753C38.9688 17.9577 37.771 13.4555 35.3205 9.4348C33.1775 5.91749 30.2706 3.45977 26.3758 2.80247C18.8856 1.53844 10.0591 3.83128 4.78515 12.7301C4.42663 13.3324 4.65682 13.4094 5.07849 13.6292C6.83238 14.5085 8.51702 15.5197 9.85943 17.0805C11.6928 19.2063 12.0472 21.6113 11.0348 24.2712C10.8555 24.7439 10.6274 25.1945 10.4237 25.6518C8.37239 30.1364 5.94219 34.4143 4.21682 39.0725C1.06143 47.6262 1.56866 55.7665 6.86498 63.1947C10.3626 68.0947 14.8909 70.8602 20.8615 70.5678C24.9539 70.3656 29.0606 70.5283 33.1612 70.5283C36.1781 70.5283 39.1929 70.5129 42.2097 70.5415C42.8779 70.5415 43.106 70.4117 42.9125 69.6225C42.442 67.677 41.507 66.7186 39.637 66.6614C37.1925 66.5867 34.748 66.624 32.3199 66.6109C32.0153 66.6161 31.7106 66.6036 31.4073 66.5735C30.7962 66.4943 30.403 66.1558 30.403 65.437C30.403 64.7181 30.7656 64.3554 31.3767 64.2564C31.7132 64.1949 32.0558 64.183 32.3953 64.2213C33.0797 64.3158 33.4525 63.9509 33.7641 63.3529C35.048 60.9362 35.8637 58.2632 36.1618 55.4962C36.7382 49.7981 34.3508 46.2984 29.1523 45.2344C28.1562 45.0322 27.1376 44.953 26.1293 44.8167C25.3471 44.7112 24.6769 44.4188 24.8317 43.3988C24.9702 42.4777 25.62 42.3392 26.3839 42.4601C27.2212 42.5898 28.0686 42.647 28.9078 42.7635C34.0005 43.467 37.1314 46.2588 38.1377 51.0314C38.2897 51.819 38.3939 52.6165 38.4494 53.4187C38.5023 54.0453 38.7121 54.2211 39.3008 54.0651C43.7477 52.889 47.9929 51.3347 51.3194 47.6614C52.6394 46.2039 54.3587 45.828 56.2083 46.505C57.5691 47.0041 58.885 46.6567 60.1887 46.2127C60.3924 46.1423 60.6063 46.1049 60.533 45.7005C60.1255 43.4208 58.8096 42.1194 56.6626 41.9633C55.7464 41.8986 54.8292 42.072 53.9879 42.4689C50.5759 44.0539 46.9703 44.2715 43.326 44.2276C42.6823 44.2276 42.3075 43.8846 42.2484 43.1856C42.1894 42.4865 42.5275 42.0864 43.1244 41.9215C43.358 41.8795 43.5944 41.8574 43.8312 41.8556C45.9559 41.6511 48.0846 41.4819 50.2051 41.2247C51.3372 41.1092 52.4226 40.6806 53.3564 39.9804C52.9674 39.809 52.6496 39.6859 52.3379 39.5408C51.7268 39.2198 51.3642 38.7186 51.6168 37.9558C51.8694 37.193 52.4316 37.1402 53.0427 37.2963C53.6539 37.4524 54.265 37.7008 54.9005 37.8459C56.1228 38.1272 57.3287 38.1668 58.4389 37.4062C59.2068 36.8852 59.5572 36.2455 59.1865 35.2079C58.4185 33.0425 57.4957 30.9783 56.1044 29.2021C54.1652 26.7268 51.9 24.7725 48.8709 24.1459C48.6672 24.4427 48.7894 24.6977 48.8118 24.9417C48.8851 25.6958 48.6651 26.2607 47.9318 26.4234C47.1985 26.5861 46.8766 26.0739 46.6811 25.4408C46.4855 24.8076 46.3388 24.1042 46.1392 23.4447C45.7318 22.0795 45.3244 20.7012 44.3772 19.5273C44.261 19.7691 44.1735 19.923 44.1083 20.0878C43.2691 22.0111 42.8171 24.1045 42.7822 26.2299C42.7822 27.0609 42.5397 27.7534 41.7025 27.782C40.8653 27.8105 40.6127 27.0807 40.5821 26.2761C40.5821 26.1024 40.5536 25.964 40.517 25.6606H40.519Z" fill="#FF4A76"/>
</svg>
