<svg width="208" height="224" xmlns="http://www.w3.org/2000/svg" xmlns:xlink="http://www.w3.org/1999/xlink" overflow="hidden"><defs><clipPath id="clip0"><rect x="83" y="87" width="208" height="224"/></clipPath></defs><g clip-path="url(#clip0)" transform="translate(-83 -87)"><path d="M137.14 62.2231C139.554 57.0825 142.52 53.0373 141.962 47.7623 141.96 46.862 142.032 45.963 142.177 45.0744 142.338 42.6419 143.603 41.2913 146.065 41.5331 148.29 41.7482 149.427 43.0384 149.145 45.4305 148.784 48.0113 149.408 50.6333 150.893 52.7752 153.335 56.2627 155.696 59.804 157.37 63.7216 157.921 65.0655 159.152 65.5157 160.558 65.818 184.393 71.0259 196.721 87.5831 203.601 109.496 204.314 111.761 203.601 113.648 201.953 115.268 200.837 116.364 199.713 117.466 198.691 118.628 197.669 119.79 196.183 120.503 195.537 122.23 199.815 123.446 202.128 126.651 203.756 130.394 205.181 133.66 206.325 137.046 207.589 140.386 208.605 143.04 207.704 144.915 205.262 146.219 198.839 149.652 192.06 151.514 184.918 149.377 179.84 147.859 175.845 149.229 172.375 152.63 160.37 164.376 145.472 169.859 129.331 172.789 128.269 172.977 127.072 172.741 126.601 174.18 124.194 181.457 121.759 188.721 119.203 196.354 123.42 196.354 127.213 196.301 130.999 196.354 145.425 196.597 150.604 209.391 149.703 219.981 149.669 220.604 149.422 221.197 149.004 221.661 148.585 222.124 148.02 222.43 147.403 222.527 146.091 222.797 144.754 222.925 143.415 222.911 118.914 222.911 94.3929 222.366 69.9051 223.106 43.0637 223.912 24.3467 211.185 11.1782 189.407-2.27277 167.111-3.1 143.377 6.10046 119.166 11.037 106.176 17.9911 94.1953 24.6023 82.0397 26.54 78.5216 28.2191 74.8676 29.6262 71.1064 32.0137 64.6623 30.783 60.0123 25.5438 55.5638 21.3837 52.1521 16.6951 49.4398 11.6624 47.5338 5.47498 45.0475 5.01093 43.7842 8.23919 37.8642 20.002 16.2941 38.8065 5.00498 62.5407 1.17476 75.9916-0.99569 89.3555-0.552193 101.831 5.87854 116.472 13.3777 125.135 25.9368 130.972 40.8208 133.582 47.4532 135.358 54.361 137.14 62.2231ZM133.777 78.4377C124.126 83.1817 115.511 88.6781 108.025 95.8689 106.889 96.9567 106.761 97.6221 108.025 98.7243 109.504 99.9811 109.465 101.694 108.442 103.273 107.339 104.974 105.685 104.994 103.963 104.456 103.223 104.221 102.524 103.852 101.804 103.549 84.1428 96.104 65.4528 100.028 52.3852 114.059 41.2411 126.013 38.3693 140.602 39.2773 156.305 39.7346 164.174 41.8195 171.707 44.4088 179.112 45.236 181.477 45.3504 183.635 42.5997 184.689 39.8489 185.744 38.4299 184.017 37.5824 181.685 32.3097 167.265 30.0365 152.468 32.9486 137.248 39.1226 105.155 68.7147 86.7631 96.7535 94.0272 97.3942 94.2264 98.0796 94.2383 98.7275 94.0622 99.3754 93.8861 99.9595 93.5291 100.412 93.0326 108.974 84.546 118.981 78.0412 129.331 72.0002 129.841 71.7881 130.257 71.3999 130.504 70.9063 130.751 70.4129 130.813 69.847 130.677 69.3123 128.659 54.8919 124.704 41.13 116.614 28.8397 109.539 18.0882 99.9412 10.5756 87.0819 8.56641 62.3523 4.70259 33.2109 11.7112 15.7986 38.9125 14.6149 40.7537 15.3749 40.9888 16.767 41.6608 22.5577 44.3487 28.1197 47.4398 32.5518 52.2107 38.6047 58.7087 39.7749 66.06 36.4324 74.1908 35.8405 75.6356 35.0873 77.0131 34.4148 78.4107 27.6422 92.1193 19.6187 105.195 13.9222 119.434 3.50442 145.581 5.17906 170.464 22.6653 193.17 34.213 208.147 49.1637 216.601 68.8761 215.707 82.3879 215.089 95.9462 215.586 109.485 215.586 119.445 215.586 129.398 215.539 139.359 215.627 141.565 215.627 142.318 215.23 141.679 212.817 140.126 206.871 137.039 203.941 130.865 203.767 122.794 203.538 114.724 203.652 106.707 203.612 105.701 203.628 104.696 203.59 103.694 203.497 101.676 203.256 100.378 202.221 100.378 200.023 100.378 197.826 101.576 196.718 103.593 196.415 104.704 196.227 105.835 196.19 106.956 196.307 109.215 196.597 110.446 195.481 111.475 193.654 115.714 186.266 118.407 178.095 119.391 169.637 121.294 152.219 113.413 141.522 96.249 138.27 92.9601 137.651 89.597 137.41 86.2682 136.993 83.6853 136.67 81.473 135.777 81.9839 132.659 82.4413 129.843 84.5867 129.42 87.109 129.79 89.8727 130.186 92.6708 130.36 95.4417 130.716 112.255 132.867 122.592 141.401 125.915 155.99 126.417 158.397 126.76 160.835 126.944 163.287 127.119 165.202 127.812 165.739 129.755 165.263 144.437 161.668 158.453 156.916 169.436 145.688 173.794 141.233 179.47 140.084 185.577 142.153 190.069 143.679 194.414 142.617 198.718 141.26 199.391 141.045 200.097 140.931 199.855 139.694 198.51 132.726 194.165 128.748 187.076 128.271 184.051 128.073 181.023 128.603 178.246 129.817 166.981 134.661 155.076 135.327 143.045 135.192 140.92 135.192 139.682 134.144 139.487 132.007 139.292 129.87 140.408 128.647 142.379 128.143 143.15 128.015 143.93 127.947 144.713 127.942 151.728 127.317 158.756 126.799 165.757 126.013 169.494 125.66 173.078 124.35 176.161 122.21 174.876 121.686 173.827 121.309 172.799 120.866 170.781 119.885 169.584 118.353 170.417 116.021 171.252 113.689 173.108 113.528 175.126 114.005 177.143 114.482 179.161 115.242 181.259 115.685 185.295 116.545 189.276 116.666 192.941 114.341 195.477 112.748 196.633 110.793 195.409 107.621 192.874 101.002 189.827 94.6926 185.234 89.2631 178.831 81.697 171.352 75.7229 161.351 73.8078 160.679 74.715 161.083 75.4944 161.156 76.2403 161.398 78.5452 160.672 80.2721 158.251 80.7693 155.829 81.2666 154.767 79.7007 154.122 77.7657 153.476 75.8304 152.992 73.6801 152.333 71.6642 150.987 67.4913 149.642 63.2781 146.515 59.6897 146.132 60.4289 145.842 60.8993 145.627 61.4033 142.857 67.2822 141.364 73.681 141.249 80.178 141.249 82.7178 140.449 84.8345 137.685 84.9222 134.92 85.0098 134.087 82.7784 133.985 80.3191 133.985 79.7883 133.891 79.365 133.77 78.4377L133.777 78.4377Z" fill="#FF4A76" transform="matrix(1 0 0 1.00385 83 87)"/></g></svg>